HIERARCHY
ROOT Root
{
  OFFSET 0.0 0.0 0.0
  CHANNELS 6 Xposition Yposition Zposition Zrotation Yrotation Xrotation
  JOINT Hips
  {
    OFFSET 0.0 100.0 0.0
    CHANNELS 6 Xposition Yposition Zposition Zrotation Yrotation Xrotation
    JOINT Spine1
    {
      OFFSET 5.003913 -0.037094 -0.013727
      CHANNELS 3 Zrotation Yrotation Xrotation
      JOINT Spine2
      {
        OFFSET 7.125363 -1e-06 0.0
        CHANNELS 3 Zrotation Yrotation Xrotation
        JOINT Chest
        {
          OFFSET 7.594027 1e-06 0.0
          CHANNELS 3 Zrotation Yrotation Xrotation
          JOINT Neck1
          {
            OFFSET 26.313086 -0.460272 -0.181672
            CHANNELS 3 Zrotation Yrotation Xrotation
            JOINT Neck2
            {
              OFFSET 8.045911 0.0 0.0
              CHANNELS 3 Zrotation Yrotation Xrotation
              JOINT Head
              {
                OFFSET 6.432774 0.0 0.0
                CHANNELS 3 Zrotation Yrotation Xrotation
                JOINT HeadEnd
                {
                  OFFSET 16.169773 0.06451 0.00362
                  CHANNELS 3 Zrotation Yrotation Xrotation
                }
                JOINT Jaw
                {
                  OFFSET 0.108741 3.12938 0.002639
                  CHANNELS 3 Zrotation Yrotation Xrotation
                }
                JOINT LeftEye
                {
                  OFFSET 4.45173 8.166359 3.206392
                  CHANNELS 3 Zrotation Yrotation Xrotation
                }
                JOINT RightEye
                {
                  OFFSET 4.436895 8.135758 -3.222429
                  CHANNELS 3 Zrotation Yrotation Xrotation
                }
              }
            }
          }
          JOINT LeftShoulder
          {
            OFFSET 23.218927 5.195579 1.621656
            CHANNELS 3 Zrotation Yrotation Xrotation
            JOINT LeftArm
            {
              OFFSET 15.902118 2e-06 -2e-06
              CHANNELS 3 Zrotation Yrotation Xrotation
              JOINT LeftForeArm
              {
                OFFSET 28.739307 0.0 -1e-06
                CHANNELS 3 Zrotation Yrotation Xrotation
                JOINT LeftHand
                {
                  OFFSET 27.093981 -4e-06 0.0
                  CHANNELS 3 Zrotation Yrotation Xrotation
                  JOINT LeftHandThumb1
                  {
                    OFFSET 2.276781 3.380274 0.83384
                    CHANNELS 3 Zrotation Yrotation Xrotation
                    JOINT LeftHandThumb2
                    {
                      OFFSET 4.705309 -1e-06 -1e-06
                      CHANNELS 3 Zrotation Yrotation Xrotation
                      JOINT LeftHandThumb3
                      {
                        OFFSET 2.798515 0.0 3e-06
                        CHANNELS 3 Zrotation Yrotation Xrotation
                        JOINT LeftHandThumbEnd
                        {
                          OFFSET 3.180793 4e-06 -4e-06
                          CHANNELS 3 Zrotation Yrotation Xrotation
                        }
                      }
                    }
                  }
                  JOINT LeftHandIndex1
                  {
                    OFFSET 3.247786 2.352677 0.137192
                    CHANNELS 3 Zrotation Yrotation Xrotation
                    JOINT LeftHandIndex2
                    {
                      OFFSET 6.367095 1e-06 0.0
                      CHANNELS 3 Zrotation Yrotation Xrotation
                      JOINT LeftHandIndex3
                      {
                        OFFSET 3.662364 0.0 0.0
                        CHANNELS 3 Zrotation Yrotation Xrotation
                        JOINT LeftHandIndex4
                        {
                          OFFSET 2.329242 4e-06 -4e-06
                          CHANNELS 3 Zrotation Yrotation Xrotation
                          JOINT LeftHandIndexEnd
                          {
                            OFFSET 2.767823 1e-06 0.0
                            CHANNELS 3 Zrotation Yrotation Xrotation
                          }
                        }
                      }
                    }
                  }
                  JOINT LeftHandMiddle1
                  {
                    OFFSET 3.163612 0.945023 -0.406112
                    CHANNELS 3 Zrotation Yrotation Xrotation
                    JOINT LeftHandMiddle2
                    {
                      OFFSET 6.276789 3e-06 0.0
                      CHANNELS 3 Zrotation Yrotation Xrotation
                      JOINT LeftHandMiddle3
                      {
                        OFFSET 4.35652 -1e-06 4e-06
                        CHANNELS 3 Zrotation Yrotation Xrotation
                        JOINT LeftHandMiddle4
                        {
                          OFFSET 2.996877 0.0 8e-06
                          CHANNELS 3 Zrotation Yrotation Xrotation
                          JOINT LeftHandMiddleEnd
                          {
                            OFFSET 2.323256 3e-06 -4e-06
                            CHANNELS 3 Zrotation Yrotation Xrotation
                          }
                        }
                      }
                    }
                  }
                  JOINT LeftHandRing1
                  {
                    OFFSET 2.882606 -0.309162 0.107445
                    CHANNELS 3 Zrotation Yrotation Xrotation
                    JOINT LeftHandRing2
                    {
                      OFFSET 6.033198 0.0 4e-06
                      CHANNELS 3 Zrotation Yrotation Xrotation
                      JOINT LeftHandRing3
                      {
                        OFFSET 4.350578 3e-06 0.0
                        CHANNELS 3 Zrotation Yrotation Xrotation
                        JOINT LeftHandRing4
                        {
                          OFFSET 2.651321 2e-06 -7e-06
                          CHANNELS 3 Zrotation Yrotation Xrotation
                          JOINT LeftHandRingEnd
                          {
                            OFFSET 1.937663 1e-06 -4e-06
                            CHANNELS 3 Zrotation Yrotation Xrotation
                          }
                        }
                      }
                    }
                  }
                  JOINT LeftHandPinky1
                  {
                    OFFSET 2.865315 -1.525436 0.575687
                    CHANNELS 3 Zrotation Yrotation Xrotation
                    JOINT LeftHandPinky2
                    {
                      OFFSET 5.54936 1e-06 -8e-06
                      CHANNELS 3 Zrotation Yrotation Xrotation
                      JOINT LeftHandPinky3
                      {
                        OFFSET 3.070974 0.0 -4e-06
                        CHANNELS 3 Zrotation Yrotation Xrotation
                        JOINT LeftHandPinky4
                        {
                          OFFSET 1.549672 1e-06 0.0
                          CHANNELS 3 Zrotation Yrotation Xrotation
                          JOINT LeftHandPinkyEnd
                          {
                            OFFSET 1.952123 0.0 0.0
                            CHANNELS 3 Zrotation Yrotation Xrotation
                          }
                        }
                      }
                    }
                  }
                }
              }
            }
          }
          JOINT RightShoulder
          {
            OFFSET 23.161716 5.296122 -1.380114
            CHANNELS 3 Zrotation Yrotation Xrotation
            JOINT RightArm
            {
              OFFSET -16.027195 -2e-06 1.1e-05
              CHANNELS 3 Zrotation Yrotation Xrotation
              JOINT RightForeArm
              {
                OFFSET -28.736639 4e-06 2e-06
                CHANNELS 3 Zrotation Yrotation Xrotation
                JOINT RightHand
                {
                  OFFSET -27.133619 6e-06 0.0
                  CHANNELS 3 Zrotation Yrotation Xrotation
                  JOINT RightHandThumb1
                  {
                    OFFSET -2.274328 -3.351035 -0.83067
                    CHANNELS 3 Zrotation Yrotation Xrotation
                    JOINT RightHandThumb2
                    {
                      OFFSET -4.703594 -3e-06 2e-06
                      CHANNELS 3 Zrotation Yrotation Xrotation
                      JOINT RightHandThumb3
                      {
                        OFFSET -2.794935 -4e-06 -3e-06
                        CHANNELS 3 Zrotation Yrotation Xrotation
                        JOINT RightHandThumbEnd
                        {
                          OFFSET -3.183852 4e-06 1e-06
                          CHANNELS 3 Zrotation Yrotation Xrotation
                        }
                      }
                    }
                  }
                  JOINT RightHandIndex1
                  {
                    OFFSET -3.253496 -2.33755 -0.127667
                    CHANNELS 3 Zrotation Yrotation Xrotation
                    JOINT RightHandIndex2
                    {
                      OFFSET -6.344434 0.0 0.0
                      CHANNELS 3 Zrotation Yrotation Xrotation
                      JOINT RightHandIndex3
                      {
                        OFFSET -3.654871 0.0 -8e-06
                        CHANNELS 3 Zrotation Yrotation Xrotation
                        JOINT RightHandIndex4
                        {
                          OFFSET -2.327586 -1e-06 0.0
                          CHANNELS 3 Zrotation Yrotation Xrotation
                          JOINT RightHandIndexEnd
                          {
                            OFFSET -2.770001 3e-06 8e-06
                            CHANNELS 3 Zrotation Yrotation Xrotation
                          }
                        }
                      }
                    }
                  }
                  JOINT RightHandMiddle1
                  {
                    OFFSET -3.168223 -0.944764 0.411762
                    CHANNELS 3 Zrotation Yrotation Xrotation
                    JOINT RightHandMiddle2
                    {
                      OFFSET -6.266691 -1e-06 -4e-06
                      CHANNELS 3 Zrotation Yrotation Xrotation
                      JOINT RightHandMiddle3
                      {
                        OFFSET -4.348901 0.0 0.0
                        CHANNELS 3 Zrotation Yrotation Xrotation
                        JOINT RightHandMiddle4
                        {
                          OFFSET -3.00024 2e-06 -4e-06
                          CHANNELS 3 Zrotation Yrotation Xrotation
                          JOINT RightHandMiddleEnd
                          {
                            OFFSET -2.321477 -4e-06 -4e-06
                            CHANNELS 3 Zrotation Yrotation Xrotation
                          }
                        }
                      }
                    }
                  }
                  JOINT RightHandRing1
                  {
                    OFFSET -2.885654 0.293261 -0.119232
                    CHANNELS 3 Zrotation Yrotation Xrotation
                    JOINT RightHandRing2
                    {
                      OFFSET -6.032835 -1e-06 -4e-06
                      CHANNELS 3 Zrotation Yrotation Xrotation
                      JOINT RightHandRing3
                      {
                        OFFSET -4.33881 0.0 -4e-06
                        CHANNELS 3 Zrotation Yrotation Xrotation
                        JOINT RightHandRing4
                        {
                          OFFSET -2.654903 -4e-06 -4e-06
                          CHANNELS 3 Zrotation Yrotation Xrotation
                          JOINT RightHandRingEnd
                          {
                            OFFSET -1.935122 0.0 4e-06
                            CHANNELS 3 Zrotation Yrotation Xrotation
                          }
                        }
                      }
                    }
                  }
                  JOINT RightHandPinky1
                  {
                    OFFSET -2.866241 1.503904 -0.60527
                    CHANNELS 3 Zrotation Yrotation Xrotation
                    JOINT RightHandPinky2
                    {
                      OFFSET -5.553177 -2e-06 0.0
                      CHANNELS 3 Zrotation Yrotation Xrotation
                      JOINT RightHandPinky3
                      {
                        OFFSET -3.062664 -1e-06 -4e-06
                        CHANNELS 3 Zrotation Yrotation Xrotation
                        JOINT RightHandPinky4
                        {
                          OFFSET -1.546529 2e-06 4e-06
                          CHANNELS 3 Zrotation Yrotation Xrotation
                          JOINT RightHandPinkyEnd
                          {
                            OFFSET -1.952341 0.0 -4e-06
                            CHANNELS 3 Zrotation Yrotation Xrotation
                          }
                        }
                      }
                    }
                  }
                }
              }
            }
          }
        }
      }
    }
    JOINT LeftLeg
    {
      OFFSET -8.443107 2.567604 10.043214
      CHANNELS 3 Zrotation Yrotation Xrotation
      JOINT LeftShin
      {
        OFFSET 43.229198 1e-06 -1e-06
        CHANNELS 3 Zrotation Yrotation Xrotation
        JOINT LeftFoot
        {
          OFFSET 42.298611 1e-06 1e-06
          CHANNELS 3 Zrotation Yrotation Xrotation
          JOINT LeftToeBase
          {
            OFFSET 14.165858 1e-06 0.0
            CHANNELS 3 Zrotation Yrotation Xrotation
            JOINT LeftToeEnd
            {
              OFFSET 6.7141 -0.234461 0.0
              CHANNELS 3 Zrotation Yrotation Xrotation
            }
          }
        }
      }
    }
    JOINT RightLeg
    {
      OFFSET -8.303923 2.592729 -10.047278
      CHANNELS 3 Zrotation Yrotation Xrotation
      JOINT RightShin
      {
        OFFSET -43.369682 0.0 1e-06
        CHANNELS 3 Zrotation Yrotation Xrotation
        JOINT RightFoot
        {
          OFFSET -42.260784 4e-06 2e-06
          CHANNELS 3 Zrotation Yrotation Xrotation
          JOINT RightToeBase
          {
            OFFSET -14.222245 -2e-06 -1e-06
            CHANNELS 3 Zrotation Yrotation Xrotation
            JOINT RightToeEnd
            {
              OFFSET -6.660062 0.232574 -2e-06
              CHANNELS 3 Zrotation Yrotation Xrotation
            }
          }
        }
      }
    }
  }
}
MOTION
Frames: 4
Frame Time: 0.03333333333333333
0.0 0.0 0.0 0.0 -0.0 0.0 54.751343 100.01593 55.427162 91.480263 -2.872882 30.025444 -1.64268 -3.750711 -0.77176 -11.557368 -1.774544 -3.376324 17.542221 1.458097 -5.268413 37.196247 6.04195 2.785306 -2.530025 -0.774579 -0.470774 -18.66412 -5.598294 1.564266 6e-06 -1e-06 1e-06 -0.121327 0.018623 0.046096 -0.072769 0.114374 0.057048 -0.060638 -0.074004 0.023802 -105.697136 -79.313652 122.618988 48.522541 -54.334904 18.525864 29.141106 0.753678 -0.0173 -1.099381 0.176585 5.637276 17.636633 -26.322735 52.411201 -19.466663 -14.395598 29.410395 -0.0 -8.774822 -1e-06 16.194651 -18.486151 6.340112 -0.609777 -1.795654 -3.889329 -4.80709 -11.046813 -2.937854 4e-06 -20.976021 -2e-06 -5.019972 -25.033562 -4.031879 8e-06 2e-06 -0.0 -10.634537 -5.686972 -3.565589 10.573277 -17.922955 -3.113901 2e-06 -13.821212 -0.0 -0.501776 -31.181511 -4.027018 -11.918611 -60.310974 7.968324 -13.982714 -7.150198 -2.875044 13.772731 -8.401492 -3.218243 0.347732 -34.211559 0.771657 -0.963028 -17.73337 2.621022 1e-06 -1e-06 -1e-06 -17.346422 -20.095221 -4.201784 21.757561 -1.638374 3.866428 2e-06 -6.338825 -0.0 -1.69759 -22.591749 -6.19401 -2e-06 -2e-06 -0.0 60.907196 -70.773514 134.163269 44.299568 -63.951355 -5.801537 31.567867 0.732052 -0.111854 3.332331 5.807158 -2.052375 22.182121 -20.375898 49.933327 -16.701813 -16.743525 28.47653 -3e-06 -12.690603 -1e-06 15.943301 -17.849234 2.94721 -0.105921 -1.513857 -4.275883 -5.039042 -5.612873 -2.953554 4e-06 -11.020526 -1e-06 -6.111298 -15.895338 -3.840474 -0.0 -0.0 1e-06 -10.283369 -5.680289 -4.341837 11.028292 -11.302406 -2.372633 -1.38427 -14.238585 -6.320119 -0.625438 -26.924198 -3.8276 -4.520072 -49.862476 -3.154101 -13.708527 -7.363478 -3.720937 18.14115 -14.05274 -3.242675 7e-06 -18.787271 -2e-06 -0.429713 -8.456045 2.555506 2e-06 -2e-06 -2e-06 -15.923536 -20.094484 -5.473584 30.419214 -7.190827 1.735929 2e-06 -8.162927 -1e-06 -1.861905 -22.861467 -6.16794 0.0 -3e-06 -2e-06 177.416687 4.528895 -14.804255 11.859382 -0.024051 -0.329596 -82.459755 -19.621431 -2.300305 -3.32912 1.413027 2.178753 -0.999999 2e-06 -0.0 -19.293303 0.900457 10.814484 8.001285 0.135351 0.081233 -74.641808 3.766516 -10.423889 -6.595334 0.572878 1.741531 -1.000002 -0.0 -0.0 
0.0 0.0 0.0 0.0 -0.0 0.0 55.071728 100.015518 55.2262 91.281654 -2.819122 28.391727 -1.633692 -3.853014 -0.730168 -11.550631 -1.78308 -3.36033 17.618231 1.346575 -5.285429 37.684998 6.035618 2.850295 -2.519321 -0.831265 -0.478996 -18.764906 -5.580845 1.516565 6e-06 -0.0 0.0 -0.117522 0.015652 0.053028 -0.064582 0.106151 0.069747 -0.046618 -0.071939 0.025029 -105.988228 -79.283379 122.862991 48.626324 -53.892136 17.705416 29.190041 0.765198 -0.070235 -1.222558 0.307409 5.261878 17.636627 -26.322733 52.411194 -19.466661 -14.395597 29.410385 -0.0 -8.774821 -3e-06 16.181589 -18.481909 6.367195 -0.609776 -1.795654 -3.889326 -4.807087 -11.046809 -2.937849 4e-06 -20.976015 0.0 -5.019969 -25.033556 -4.031878 4e-06 2e-06 2e-06 -10.634533 -5.68697 -3.565585 10.573272 -17.922949 -3.1139 3e-06 -13.821205 1e-06 -0.501776 -31.181501 -4.027015 -11.995159 -60.340698 8.043035 -13.982714 -7.150198 -2.87504 13.772728 -8.401489 -3.218244 0.347735 -34.211544 0.771656 -0.963029 -17.73337 2.62102 -0.0 -0.0 -0.0 -17.346418 -20.095213 -4.201777 21.757555 -1.638376 3.86643 2e-06 -6.338823 -0.0 -1.697589 -22.591742 -6.194004 -2e-06 -2e-06 -0.0 60.873917 -70.666084 134.283829 43.5149 -64.043419 -5.428076 31.630238 0.72264 -0.115896 3.343766 6.089894 -2.294053 22.182112 -20.375887 49.933308 -16.701813 -16.743523 28.476526 -3e-06 -12.690599 -0.0 15.935519 -17.850355 2.914428 -0.105919 -1.513856 -4.275882 -5.039041 -5.612873 -2.953554 7e-06 -11.020525 -5e-06 -6.111295 -15.895334 -3.840474 -1e-06 0.0 -1e-06 -10.283369 -5.680288 -4.34184 11.028292 -11.302405 -2.372634 -1.384269 -14.238581 -6.320117 -0.625437 -26.924189 -3.827601 -4.512053 -49.824139 -3.213972 -13.708524 -7.363478 -3.720938 18.141148 -14.052738 -3.242676 8e-06 -18.78727 -1e-06 -0.429712 -8.456043 2.555504 3e-06 -3e-06 -2e-06 -15.923532 -20.094482 -5.473585 30.41921 -7.190826 1.735924 2e-06 -8.162926 -2e-06 -1.8619 -22.861469 -6.167945 1e-06 -5e-06 1e-06 177.241013 4.397017 -15.384526 12.231562 -0.026059 -0.346335 -82.500404 -20.329044 -2.429388 -3.349766 1.435024 2.186589 -0.999999 -1e-06 0.0 -19.420303 0.939844 9.686558 8.264148 0.109902 0.053128 -74.829155 3.049319 -10.419611 -6.64513 0.577586 1.744874 -1.000002 0.0 -0.0 
0.0 0.0 0.0 0.0 -0.0 0.0 55.321663 100.00666 55.067051 91.06469 -2.752266 27.008816 -1.660688 -3.918062 -0.697635 -11.561933 -1.782565 -3.317678 17.715603 1.195851 -5.278558 38.188316 6.005063 2.910294 -2.506714 -0.879686 -0.492787 -18.850021 -5.539433 1.388667 6e-06 -1e-06 0.0 -0.111998 0.013368 0.053728 -0.060513 0.097548 0.0753 -0.0403 -0.067593 0.020742 -106.61425 -79.180023 123.424469 48.773056 -53.430019 16.558012 29.408234 0.721518 -0.109291 -1.246688 0.639493 4.758849 17.636633 -26.322733 52.41119 -19.466656 -14.395597 29.410381 -0.0 -8.774821 -4e-06 16.161531 -18.478548 6.388831 -0.609776 -1.795654 -3.889328 -4.807088 -11.046809 -2.93785 6e-06 -20.976013 0.0 -5.01997 -25.033552 -4.031878 6e-06 0.0 1e-06 -10.634535 -5.68697 -3.565588 10.573274 -17.922951 -3.113899 3e-06 -13.821205 1e-06 -0.501776 -31.181501 -4.027011 -12.111006 -60.337448 8.130307 -13.982713 -7.150197 -2.875045 13.772727 -8.401492 -3.218238 0.347735 -34.211555 0.771658 -0.963029 -17.73337 2.621023 -1e-06 -0.0 -0.0 -17.346422 -20.095217 -4.201779 21.757563 -1.638376 3.866428 2e-06 -6.338822 -0.0 -1.697586 -22.591747 -6.194006 -2e-06 -1e-06 -1e-06 60.848778 -70.548653 134.446304 42.709404 -64.089561 -4.783363 31.635353 0.720307 -0.116037 3.389 6.24807 -2.435311 22.182117 -20.375898 49.933327 -16.701815 -16.743528 28.476534 -4e-06 -12.6906 -1e-06 15.91735 -17.854359 2.882722 -0.105919 -1.513858 -4.275882 -5.039041 -5.612871 -2.953557 7e-06 -11.020526 -2e-06 -6.111297 -15.895336 -3.840467 -0.0 1e-06 -2e-06 -10.283369 -5.680286 -4.341839 11.028294 -11.302407 -2.372635 -1.384266 -14.238581 -6.320119 -0.625434 -26.924189 -3.827603 -4.507976 -49.787891 -3.292481 -13.708524 -7.363474 -3.72094 18.14115 -14.052739 -3.242674 8e-06 -18.78727 -1e-06 -0.429708 -8.456045 2.555507 2e-06 -1e-06 -0.0 -15.923534 -20.094486 -5.473587 30.419214 -7.190831 1.735924 2e-06 -8.162926 -2e-06 -1.861898 -22.861473 -6.167942 0.0 -4e-06 0.0 177.212082 4.288283 -15.853981 12.457417 -0.023579 -0.366623 -82.546143 -20.924364 -2.487751 -3.330801 1.45105 2.193743 -0.999998 0.0 0.0 -19.445749 0.86995 8.503261 8.727252 0.080075 0.03344 -74.829826 2.354496 -10.449771 -6.634955 0.578502 1.743972 -1.000002 -1e-06 0.0 
0.0 0.0 0.0 0.0 -0.0 0.0 55.494492 99.986877 54.911613 90.819313 -2.661252 25.830704 -1.697091 -3.967851 -0.675122 -11.577413 -1.778652 -3.26633 17.789791 1.042314 -5.238158 38.749531 5.917743 2.934365 -2.493764 -0.923418 -0.450158 -18.915119 -5.484305 1.246106 4e-06 -1e-06 -0.0 -0.104515 0.007888 0.05905 -0.062002 0.087115 0.081033 -0.040425 -0.067531 0.025045 -107.267937 -79.038811 124.08931 49.00893 -53.002075 15.27182 29.794296 0.681315 -0.129732 -1.269835 1.039464 4.210692 17.636627 -26.322721 52.411171 -19.466654 -14.395592 29.410381 0.0 -8.774819 -1e-06 16.130459 -18.486525 6.397385 -0.609776 -1.795654 -3.889324 -4.807087 -11.046808 -2.937849 2e-06 -20.976011 -1e-06 -5.019969 -25.033548 -4.03188 6e-06 0.0 1e-06 -10.63453 -5.68697 -3.565589 10.573269 -17.922947 -3.113899 2e-06 -13.821206 1e-06 -0.501779 -31.181501 -4.027012 -12.237285 -60.296646 8.18158 -13.982711 -7.150198 -2.875041 13.772726 -8.401488 -3.218242 0.347731 -34.21154 0.771656 -0.963031 -17.733366 2.621021 -1e-06 -1e-06 1e-06 -17.346413 -20.095215 -4.201783 21.757551 -1.638373 3.866428 -0.0 -6.338821 1e-06 -1.69759 -22.59174 -6.194005 -2e-06 -2e-06 1e-06 60.832924 -70.445778 134.603821 41.860916 -64.111526 -3.926205 31.533215 0.71668 -0.108076 3.414788 6.31264 -2.416573 22.182112 -20.375887 49.933304 -16.701809 -16.743528 28.476528 -4e-06 -12.690601 -2e-06 15.903834 -17.848715 2.858212 -0.105921 -1.513858 -4.275881 -5.03904 -5.61287 -2.953556 6e-06 -11.020523 -3e-06 -6.111299 -15.89533 -3.840467 0.0 -1e-06 -1e-06 -10.283368 -5.680288 -4.34184 11.028292 -11.302404 -2.372633 -1.38427 -14.238583 -6.320116 -0.625438 -26.924191 -3.827602 -4.475773 -49.745235 -3.378543 -13.708521 -7.363474 -3.720938 18.141144 -14.052738 -3.242673 6e-06 -18.78727 -2e-06 -0.42971 -8.456044 2.555503 3e-06 -1e-06 -0.0 -15.923532 -20.094482 -5.473585 30.419205 -7.190823 1.735928 1e-06 -8.162925 -1e-06 -1.8619 -22.861469 -6.167942 -1e-06 -3e-06 -1e-06 177.287735 4.176026 -16.262074 12.645037 -0.018246 -0.392831 -82.629677 -21.400805 -2.547929 -3.28888 1.464921 2.201143 -0.999999 0.0 -0.0 -19.323343 0.701677 7.231224 9.305383 0.062092 0.035359 -74.779449 1.850427 -10.654612 -6.576993 0.574862 1.739947 -1.000001 -1e-06 -0.0 
